<svg width="82" height="82" viewBox="0 0 82 82" fill="none" xmlns="http://www.w3.org/2000/svg">
<path d="M42.2186 30.6021V26.4984H68.6611V30.6021H42.2186ZM42.2186 12.3543V8.25076H82V12.3543H42.2186ZM21.3436 82C15.376 82 10.3268 79.9845 6.19615 75.9536C2.06538 71.9227 0 67.0116 0 61.2203C0 57.1544 1.08967 53.4068 3.269 49.9775C5.44824 46.5481 8.40156 43.9403 12.129 42.154V8.96568C12.129 6.46003 13.0083 4.33934 14.7671 2.6036C16.5259 0.867869 18.7268 0 21.3698 0C23.9786 0 26.171 0.867869 27.9468 2.6036C29.7228 4.33934 30.6108 6.46003 30.6108 8.96568V42.154C34.3493 43.9403 37.3082 46.5481 39.4875 49.9775C41.6667 53.4068 42.7563 57.1544 42.7563 61.2203C42.7563 67.0116 40.6795 71.9227 36.5257 75.9536C32.3718 79.9845 27.3111 82 21.3436 82ZM4.21302 61.2203H38.5435C38.5435 58.8411 37.8511 56.4618 36.4662 54.0826C35.0814 51.7033 33.0511 49.4533 30.3754 47.3327L26.3978 44.3533V8.96568C26.3978 7.62948 25.9112 6.48505 24.938 5.53239C23.9648 4.57982 22.7836 4.10354 21.3946 4.10354C20.0056 4.10354 18.8162 4.57982 17.8264 5.53239C16.8367 6.48505 16.3418 7.62948 16.3418 8.96568V44.3533L12.5099 47.3327C9.84693 49.5299 7.79839 51.8463 6.36424 54.2819C4.93009 56.7175 4.21302 59.0303 4.21302 61.2203Z" fill="#F1350C"/>
</svg>
