<svg width="50" height="51" viewBox="0 0 50 51" fill="none" xmlns="http://www.w3.org/2000/svg">
<path d="M9.625 38.2786C11.75 36.6536 14.125 35.3723 16.75 34.4348C19.375 33.4973 22.125 33.0286 25 33.0286C27.875 33.0286 30.625 33.4973 33.25 34.4348C35.875 35.3723 38.25 36.6536 40.375 38.2786C41.8333 36.5702 42.9688 34.6327 43.7812 32.4661C44.5938 30.2994 45 27.9869 45 25.5286C45 19.9869 43.0521 15.2681 39.1562 11.3723C35.2604 7.47648 30.5417 5.52856 25 5.52856C19.4583 5.52856 14.7396 7.47648 10.8438 11.3723C6.94792 15.2681 5 19.9869 5 25.5286C5 27.9869 5.40625 30.2994 6.21875 32.4661C7.03125 34.6327 8.16667 36.5702 9.625 38.2786ZM25 28.0286C22.5417 28.0286 20.4688 27.1848 18.7812 25.4973C17.0938 23.8098 16.25 21.7369 16.25 19.2786C16.25 16.8202 17.0938 14.7473 18.7812 13.0598C20.4688 11.3723 22.5417 10.5286 25 10.5286C27.4583 10.5286 29.5312 11.3723 31.2188 13.0598C32.9062 14.7473 33.75 16.8202 33.75 19.2786C33.75 21.7369 32.9062 23.8098 31.2188 25.4973C29.5312 27.1848 27.4583 28.0286 25 28.0286ZM25 50.5286C21.5417 50.5286 18.2917 49.8723 15.25 48.5598C12.2083 47.2473 9.5625 45.4661 7.3125 43.2161C5.0625 40.9661 3.28125 38.3202 1.96875 35.2786C0.65625 32.2369 0 28.9869 0 25.5286C0 22.0702 0.65625 18.8202 1.96875 15.7786C3.28125 12.7369 5.0625 10.0911 7.3125 7.84106C9.5625 5.59106 12.2083 3.80981 15.25 2.49731C18.2917 1.18481 21.5417 0.528564 25 0.528564C28.4583 0.528564 31.7083 1.18481 34.75 2.49731C37.7917 3.80981 40.4375 5.59106 42.6875 7.84106C44.9375 10.0911 46.7188 12.7369 48.0312 15.7786C49.3438 18.8202 50 22.0702 50 25.5286C50 28.9869 49.3438 32.2369 48.0312 35.2786C46.7188 38.3202 44.9375 40.9661 42.6875 43.2161C40.4375 45.4661 37.7917 47.2473 34.75 48.5598C31.7083 49.8723 28.4583 50.5286 25 50.5286ZM25 45.5286C27.2083 45.5286 29.2917 45.2056 31.25 44.5598C33.2083 43.914 35 42.9869 36.625 41.7786C35 40.5702 33.2083 39.6431 31.25 38.9973C29.2917 38.3515 27.2083 38.0286 25 38.0286C22.7917 38.0286 20.7083 38.3515 18.75 38.9973C16.7917 39.6431 15 40.5702 13.375 41.7786C15 42.9869 16.7917 43.914 18.75 44.5598C20.7083 45.2056 22.7917 45.5286 25 45.5286ZM25 23.0286C26.0833 23.0286 26.9792 22.6744 27.6875 21.9661C28.3958 21.2577 28.75 20.3619 28.75 19.2786C28.75 18.1952 28.3958 17.2994 27.6875 16.5911C26.9792 15.8827 26.0833 15.5286 25 15.5286C23.9167 15.5286 23.0208 15.8827 22.3125 16.5911C21.6042 17.2994 21.25 18.1952 21.25 19.2786C21.25 20.3619 21.6042 21.2577 22.3125 21.9661C23.0208 22.6744 23.9167 23.0286 25 23.0286Z" fill="#070707"/>
</svg>
